<svg xmlns:xlink="http://www.w3.org/1999/xlink">

    <symbol viewBox="0 0 22.418 28.523" id="webpage" xmlns="http://www.w3.org/2000/svg">
        <defs>
            <g id="wb">
                <path id="XMLID_799_" d="M52.692,2.923A10.938,10.938,0,0,0,45.041,0a12.026,12.026,0,0,0-8.87,3.42,10.106,10.106,0,0,0-2.99,7c0,3.175,1.328,5.612,3.552,6.519a1.176,1.176,0,0,0,.447.092.994.994,0,0,0,.97-.8c.075-.283.249-.979.325-1.282a1.2,1.2,0,0,0-.322-1.3,4.145,4.145,0,0,1-.943-2.832A7.13,7.13,0,0,1,44.6,3.644c3.81,0,6.176,2.165,6.176,5.651a11.742,11.742,0,0,1-1.334,5.736,3.946,3.946,0,0,1-3.264,2.284,2.164,2.164,0,0,1-1.721-.787,1.979,1.979,0,0,1-.347-1.719c.17-.719.4-1.469.625-2.194a13.575,13.575,0,0,0,.8-3.572,2.593,2.593,0,0,0-2.61-2.853c-1.984,0-3.539,2.015-3.539,4.588a6.822,6.822,0,0,0,.487,2.568c-.25,1.059-1.735,7.355-2.017,8.543-.163.693-1.144,6.167.48,6.6,1.825.49,3.457-4.841,3.623-5.444.135-.49.606-2.343.894-3.482a5.518,5.518,0,0,0,3.68,1.423,8.208,8.208,0,0,0,6.59-3.3A13.237,13.237,0,0,0,55.6,9.6,9.333,9.333,0,0,0,52.692,2.923Z" />
            </g>
        </defs>
        <use xlink:href="#wb" transform="translate(-33.181)"/>
    </symbol>


    <symbol viewBox="0 0 28.274 28.829" id="instagram" xmlns="http://www.w3.org/2000/svg">
        <defs>
            <g id="inst">
                <path id="Path_17" data-name="Path 17" d="M28.651,8.476a10.714,10.714,0,0,0-.657-3.5,7.05,7.05,0,0,0-1.635-2.557A6.948,6.948,0,0,0,23.856.76a10.187,10.187,0,0,0-3.43-.67C18.912.017,18.431,0,14.592,0s-4.32.017-5.828.084a10.164,10.164,0,0,0-3.43.67A6.889,6.889,0,0,0,2.825,2.422,7.113,7.113,0,0,0,1.2,4.973a10.742,10.742,0,0,0-.657,3.5C.466,10.013.449,10.5.449,14.418s.017,4.4.083,5.942a10.713,10.713,0,0,0,.658,3.5,7.124,7.124,0,0,0,1.635,2.557,6.948,6.948,0,0,0,2.5,1.661,10.189,10.189,0,0,0,3.431.67c1.508.068,1.989.084,5.828.084s4.32-.017,5.828-.084a10.159,10.159,0,0,0,3.43-.67,7.305,7.305,0,0,0,4.138-4.218,10.75,10.75,0,0,0,.657-3.5c.066-1.538.083-2.027.083-5.942S28.717,10.013,28.651,8.476ZM26.1,20.247a8.036,8.036,0,0,1-.486,2.675,4.738,4.738,0,0,1-2.685,2.737,7.649,7.649,0,0,1-2.624.5c-1.492.068-1.939.084-5.712.084s-4.226-.017-5.712-.084a7.618,7.618,0,0,1-2.624-.5,4.344,4.344,0,0,1-1.624-1.076,4.492,4.492,0,0,1-1.055-1.656A8.066,8.066,0,0,1,3.1,20.252c-.066-1.521-.083-1.977-.083-5.823s.016-4.308.083-5.823A8.032,8.032,0,0,1,3.581,5.93,4.391,4.391,0,0,1,4.642,4.274,4.382,4.382,0,0,1,6.266,3.2,7.655,7.655,0,0,1,8.89,2.7c1.492-.068,1.939-.084,5.712-.084s4.226.017,5.712.084a7.622,7.622,0,0,1,2.624.5,4.341,4.341,0,0,1,1.624,1.076A4.491,4.491,0,0,1,25.618,5.93,8.069,8.069,0,0,1,26.1,8.606c.066,1.521.083,1.977.083,5.823S26.171,18.726,26.1,20.247Zm0,0" transform="translate(-0.449 0)"/>
                <path id="Path_18" data-name="Path 18" d="M132.583,124.5c-4.214,0-7.634,3.066-7.634,6.844s3.419,6.844,7.634,6.844,7.634-3.066,7.634-6.844S136.8,124.5,132.583,124.5Zm0,11.284a4.466,4.466,0,1,1,4.952-4.44A4.718,4.718,0,0,1,132.583,135.784Zm0,0" transform="translate(-118.441 -116.927)" />
                <path id="Path_19" data-name="Path 19" d="M366.788,90.771a2.169,2.169,0,1,1-2.169-2.169A2.169,2.169,0,0,1,366.788,90.771Zm0,0" transform="translate(-343.212 -83.785)" />
        </g>
        </defs>
        <use xlink:href="#inst" transform="translate(0 0 28.274 28.829)"/>
    </symbol>


</svg>

